<svg xmlns="http://www.w3.org/2000/svg" width="647.011" height="592.929" viewBox="0 0 647.011 592.929">
  <g id="character" transform="translate(-58.752)">
    <g id="Background_Complete" data-name="Background Complete">
      <rect id="Rectangle_160" data-name="Rectangle 160" width="50.926" height="0.384" transform="translate(640.846 528.231)" fill="#ebebeb"/>
      <rect id="Rectangle_161" data-name="Rectangle 161" width="13.362" height="0.384" transform="translate(495.926 532.413)" fill="#ebebeb"/>
      <rect id="Rectangle_162" data-name="Rectangle 162" width="29.507" height="0.384" transform="translate(609.801 513.962)" fill="#ebebeb"/>
      <rect id="Rectangle_163" data-name="Rectangle 163" width="66.409" height="0.384" transform="translate(80.663 516.545)" fill="#ebebeb"/>
      <rect id="Rectangle_164" data-name="Rectangle 164" width="9.733" height="0.384" transform="translate(160.773 516.545)" fill="#ebebeb"/>
      <rect id="Rectangle_165" data-name="Rectangle 165" width="144.043" height="0.384" transform="translate(202.15 523.034)" fill="#ebebeb"/>
      <path id="Path_15598" data-name="Path 15598" d="M343.872,434.913H46.974a8.78,8.78,0,0,1-8.764-8.78V8.78A8.78,8.78,0,0,1,46.974,0h296.9a8.78,8.78,0,0,1,8.78,8.78V426.134A8.78,8.78,0,0,1,343.872,434.913ZM46.974.384a8.4,8.4,0,0,0-8.38,8.4V426.134a8.4,8.4,0,0,0,8.38,8.4h296.9a8.411,8.411,0,0,0,8.4-8.4V8.78a8.411,8.411,0,0,0-8.4-8.4Z" transform="translate(20.542)" fill="#73a3ff"/>
      <path id="Path_15599" data-name="Path 15599" d="M560.193,434.913H263.28a8.8,8.8,0,0,1-8.78-8.78V8.78A8.8,8.8,0,0,1,263.28,0H560.193a8.78,8.78,0,0,1,8.749,8.78V426.134A8.78,8.78,0,0,1,560.193,434.913ZM263.28.384a8.411,8.411,0,0,0-8.4,8.4V426.134a8.411,8.411,0,0,0,8.4,8.4H560.193a8.411,8.411,0,0,0,8.4-8.4V8.78a8.411,8.411,0,0,0-8.4-8.4Z" transform="translate(136.822)" fill="#73a3ff"/>
      <path id="Path_15600" data-name="Path 15600" d="M413.4,316.77c0-.615,2.06-61.012,11.886-70.561,9.549-9.226,20.527-.338,20.988,0l.984-1.184c-.123-.108-12.5-10.21-23.064,0-10.256,9.994-12.3,69.1-12.3,71.622Z" transform="translate(221.437 129.276)" fill="#fff"/>
      <path id="Path_15601" data-name="Path 15601" d="M419.546,333.679c0-.723,6.7-72.514-19.5-102.589l-1.169,1c25.786,29.6,19.2,100.729,19.128,101.482Z" transform="translate(214.442 124.237)" fill="#fff"/>
      <path id="Path_15602" data-name="Path 15602" d="M413.266,328.019l1.538-.108c0-.8-5.136-81.6,14.1-99.284l-1.046-1.138C408.007,245.68,412.974,324.667,413.266,328.019Z" transform="translate(221.768 122.301)" fill="#fff"/>
      <path id="Path_15603" data-name="Path 15603" d="M424.336,315.473h1.538c0-2.214-.63-54.57-15.5-63.042a10.533,10.533,0,0,0-9.625-.938c-9,3.721-13.454,19.712-13.639,20.4l1.538.4c0-.154,4.444-15.96,12.731-19.389a9.087,9.087,0,0,1,8.272.861C423.721,261.779,424.336,314.934,424.336,315.473Z" transform="translate(208.115 134.802)" fill="#fff"/>
      <path id="Path_15604" data-name="Path 15604" d="M415.176,314.684l1.538-.092c0-.415-2.23-41.362,8.81-55.8,2.691-3.49,5.6-5.166,8.657-4.951,7.242.507,13.316,11.1,13.377,11.209l1.338-.753c-.261-.461-6.535-11.424-14.592-11.978-3.613-.261-6.981,1.538-9.995,5.535C412.9,272.738,415.037,312.977,415.176,314.684Z" transform="translate(223.071 135.636)" fill="#fff"/>
      <path id="Path_15605" data-name="Path 15605" d="M415.677,336.338c.308-3.967,7.227-97.485-4.951-113.968l-1.245.907c11.855,16.022,4.736,111.969,4.613,112.938Z" transform="translate(220.141 119.549)" fill="#fff"/>
      <path id="Path_15606" data-name="Path 15606" d="M402.45,259.425s7.319,2.691,5.151,9.057-25.294,16.837-25.294,16.837-9.672-8.872-.784-23.31S402.266,254.874,402.45,259.425Z" transform="translate(203.092 136.279)" fill="#fff"/>
      <path id="Path_15607" data-name="Path 15607" d="M417.369,250.507s-7.78-.338-8.226,6.381,16.914,25.263,16.914,25.263,12.3-4.459,9.687-21.2S419.307,246.37,417.369,250.507Z" transform="translate(219.955 133.097)" fill="#fff"/>
      <path id="Path_15608" data-name="Path 15608" d="M420.46,231.772s-5.2-.554-4.782-3.706,20.173-11.3,31.829,1.861c0,0-7.457,12.808-18.251,12.977S420.46,231.772,420.46,231.772Z" transform="translate(223.461 119.71)" fill="#bcf"/>
      <path id="Path_15609" data-name="Path 15609" d="M420.179,229.468s4.69,2.276,6.012-.63-11.148-20.25-28-15.253c0,0-.446,14.823,8.626,20.681S420.179,229.468,420.179,229.468Z" transform="translate(214.07 114.342)" fill="#fff"/>
      <path id="Path_15610" data-name="Path 15610" d="M429.314,257.37s-3.583-2.891.277-4.305,22.834-1.015,23.064,17.775c0,0-22.1,3.675-24.832-3.49S429.314,257.37,429.314,257.37Z" transform="translate(229.506 135.782)" fill="#bcf"/>
      <path id="Path_15611" data-name="Path 15611" d="M407.331,229.97s3.583-2.891-.277-4.305-22.833-1.015-23.064,17.775c0,0,22.1,3.675,24.832-3.49S407.331,229.97,407.331,229.97Z" transform="translate(206.437 121.052)" fill="#bcf"/>
      <path id="Path_15612" data-name="Path 15612" d="M410.107,238.99s.308-3.521-2.522-2.137-12.731,12.039-2.476,22.157c0,0,13.839-10.21,11.3-15.53S410.107,238.99,410.107,238.99Z" transform="translate(215.347 127.161)" fill="#bcf"/>
      <path id="Path_15613" data-name="Path 15613" d="M431.616,242.47s-2.137-2.814.984-3.075,17.19,3.4,13.915,17.421c0,0-17.114-1.276-17.852-7.1S431.616,242.47,431.616,242.47Z" transform="translate(230.402 128.694)" fill="#fff"/>
      <path id="Path_15614" data-name="Path 15614" d="M395.16,349.183h58.721l6.35-64.3H388.81Z" transform="translate(209.029 153.155)" fill="#bcf"/>
      <rect id="Rectangle_168" data-name="Rectangle 168" width="77.68" height="14.192" transform="translate(672.382 445.139) rotate(180)" fill="#fff"/>
      <path id="Path_15615" data-name="Path 15615" d="M90.846,323.318l19.589-56.307s-27.154,20.112-26.985-2.122,12.3-4.982,16.591-13.223S88,243.531,93.706,231.03s21.926,6.7,24.786-4.367,7.442-16.683,19.251-15.684c0,0,6.381,14.546-1.445,25.063s19.343,2.091,16.591,12.67-11.84,19.82-15.837,12.3-9.057,6.827-2.23,10.5-8.934,19.6-12.393,11.255a88.078,88.078,0,0,0-8.918-15.791L95.536,327.285Z" transform="translate(44.863 113.364)" fill="#bcf"/>
      <path id="Path_15616" data-name="Path 15616" d="M94.251,309.38,72.2,273.338s21.819,9.81,18.313-5.582-9.226-1.538-13.469-6.643,7.088-7.457,1.261-15.238-14.161,7.949-17.806.723-7.688-10.425-15.684-7.949c0,0-2.214,11.04,4.782,17.129s-13.07,4.367-9.564,11.271,11.178,11.932,12.824,6.15,7.3,3.352,3.075,6.935,9.133,12.209,10.271,5.9a61.689,61.689,0,0,1,3.752-12.3l21.527,38.994Z" transform="translate(21.3 127.855)" fill="#bcf"/>
      <path id="Path_15617" data-name="Path 15617" d="M101.814,325.567l-10.1-58.076s23.249,23.925,26.616,2.168-11.255-6.827-14.069-15.53,13.039-6.027,9.456-19.113-22.434,3.075-23.464-8.2-4.613-17.452-16.268-18.451c0,0-8.534,13.177-2.583,24.679S52.211,232,53.21,242.766s8.38,21.188,13.469,14.561,7.688,8.1.507,10.594,5.582,20.542,10.287,12.947a86.275,86.275,0,0,1,11.178-13.977l7.965,61.658Z" transform="translate(28.591 112.022)" fill="#fff"/>
      <path id="Path_15618" data-name="Path 15618" d="M109.5,354.177H70a5.228,5.228,0,0,1-5.228-4.9l-4.182-68.132a5.228,5.228,0,0,1,5.243-5.551h47.85a5.228,5.228,0,0,1,5.228,5.551l-4.2,68.132a5.212,5.212,0,0,1-5.213,4.9Z" transform="translate(32.57 148.16)" fill="#bcf"/>
      <rect id="Rectangle_169" data-name="Rectangle 169" width="68.193" height="10.456" rx="3.38" transform="translate(87.982 420.983)" fill="#fff"/>
    </g>
    <g id="Shadow" transform="translate(86.275 558.118)">
      <ellipse id="_Path_" data-name="&lt;Path&gt;" cx="298.127" cy="17.406" rx="298.127" ry="17.406" fill="#eaefff"/>
    </g>
    <g id="Character_3" data-name="Character 3" transform="translate(276.487 240.577)">
      <g id="_Group_" data-name="&lt;Group&gt;" transform="translate(181.137)">
        <path id="Path_15619" data-name="Path 15619" d="M455.795,269.625s-38.978,42.33-50.372,40.439c-4.382-.723-10.917-6.366-17.313-13.039a289.788,289.788,0,0,1-19.989-23.94l12.393-12.762,2.476-2.552.876,1.445c2.706,4.428,11.086,17.975,16.914,25.494a34.076,34.076,0,0,0,3.706,4.275c5.781,5.213,43.361-28.661,43.361-28.661Z" transform="translate(-259.719 -81.997)" fill="#eec1bb"/>
        <path id="Path_15620" data-name="Path 15620" d="M400.671,284.209a70.267,70.267,0,0,1-12.562,12.3,289.8,289.8,0,0,1-19.989-23.941l12.393-12.762,3.352-1.107C386.525,263.144,394.905,276.69,400.671,284.209Z" transform="translate(-259.719 -81.497)" opacity="0.2"/>
        <path id="Path_15621" data-name="Path 15621" d="M323.876,193.26c-9.81,4.213-25.386,31.659-25.386,31.659l4.029,6.473,7.273,3.4s11.794-19.174,19.589-22.618S323.876,193.26,323.876,193.26Z" transform="translate(-297.153 -116.679)" fill="#407bff"/>
        <path id="Path_15622" data-name="Path 15622" d="M331.789,209.036a3.8,3.8,0,0,1-2.4,3.075c-5.828,2.568-13.838,13.931-17.575,19.5-1.261,1.876-2.014,3.075-2.014,3.075l-7.273-3.4-4.029-6.458s15.576-27.354,25.371-31.567c0,0,.861,1,2.014,2.552.477.646,1.015,1.384,1.538,2.2C329.744,201.394,332.2,205.884,331.789,209.036Z" transform="translate(-297.147 -116.679)" fill="#fff" opacity="0.4"/>
        <path id="Path_15623" data-name="Path 15623" d="M327.4,208.3a3.8,3.8,0,0,1-2.4,3.075c-5.828,2.568-13.838,13.931-17.575,19.5a18.71,18.71,0,0,1-.569-3.152c-1.968-19.3,11.732-30.552,14.653-32.72.338-.261.538-.384.538-.384l1.015,2.583Z" transform="translate(-292.758 -115.947)" opacity="0.2"/>
        <path id="Path_15624" data-name="Path 15624" d="M315,196.193s26.139-13.07,55.108-6.581c0,0,12.5,36.472,27.877,57.338a8.1,8.1,0,0,1-3.552,12.3c-15.453,6.15-44.483,16.191-61.1,11.7C333.344,270.936,316.061,229.621,315,196.193Z" transform="translate(-288.277 -119.611)" fill="#407bff"/>
        <path id="Path_15625" data-name="Path 15625" d="M394.448,259.23c-15.376,6.15-44.483,16.191-61.1,11.717,0,0-5.013-11.978-9.81-28.261a249.769,249.769,0,0,1-6.15-25.632A145.462,145.462,0,0,1,315,196.188s26.139-13.054,55.108-6.566c0,0,.292.861.861,2.4,1.03,2.86,2.968,8.042,5.581,14.331,5.09,12.3,12.762,28.769,21.327,40.455a8.134,8.134,0,0,1-3.429,12.424Z" transform="translate(-288.277 -119.607)" fill="#fff" opacity="0.4"/>
        <path id="Path_15626" data-name="Path 15626" d="M353.618,306.921c4.966,45.113,20.665,76.6,20.665,76.6l-11.486,2.66s-16.714-30.752-26.508-79.279A351.836,351.836,0,0,1,331,271.648l21.526-5.028a240,240,0,0,0,1.092,40.3Z" transform="translate(-279.675 -77.239)" fill="#eec1bb"/>
        <path id="Path_15627" data-name="Path 15627" d="M331,271.648l21.527-5.028a240.008,240.008,0,0,0,1.076,40.3c-6.412.215-12.3.169-17.329,0A351.808,351.808,0,0,1,331,271.648Z" transform="translate(-279.675 -77.239)" opacity="0.2"/>
        <path id="Path_15628" data-name="Path 15628" d="M356.074,339.453l14.469-.83a.892.892,0,0,1,1,.815h0l1.384,11.409a2.306,2.306,0,0,1-2.122,2.414c-5.059.215-7.473,0-13.839.384-3.906.215-11.609,1.015-17.006.477s-4.705-5.858-2.368-6.15c5.52-.615,12.854-4.613,16.314-7.688A3.706,3.706,0,0,1,356.074,339.453Z" transform="translate(-277.072 -38.534)" fill="#263238"/>
        <path id="Path_15629" data-name="Path 15629" d="M344.648,341.375a1.614,1.614,0,0,1-.477-1.645,1.107,1.107,0,0,1,.646-.892c1.538-.707,5.351,1.538,5.781,1.83a.384.384,0,0,1,.138.308.277.277,0,0,1-.215.231,15.38,15.38,0,0,1-3.414.661,3.367,3.367,0,0,1-2.46-.492Zm.431-1.937a.554.554,0,0,0-.323.431,1.153,1.153,0,0,0,.277,1.061c.646.554,2.353.538,4.613,0-1.538-.861-3.767-1.814-4.613-1.43Z" transform="translate(-272.627 -38.488)" fill="#407bff"/>
        <path id="Path_15630" data-name="Path 15630" d="M349.254,342.34c-1.338-.677-3.413-3.275-3.2-4.69a1.138,1.138,0,0,1,1.03-.969,1.538,1.538,0,0,1,1.322.338c1.353,1.184,1.276,4.951,1.292,5.074a.415.415,0,0,1-.154.246h-.138A.184.184,0,0,1,349.254,342.34Zm-2.06-5.028c-.431.077-.523.292-.538.477a6.3,6.3,0,0,0,2.429,3.783c0-1.215-.261-3.337-1.092-4.044a.876.876,0,0,0-.646-.231Z" transform="translate(-271.589 -39.591)" fill="#407bff"/>
        <path id="Path_15631" data-name="Path 15631" d="M426.132,275.237l-9.379-11.055a.923.923,0,0,1,0-1.292h0l8.288-7.98a2.276,2.276,0,0,1,3.2.246c3.214,3.906,4.613,5.935,8.641,10.763,2.537,2.983,7.811,8.657,10.625,13.285s-1.845,7.288-3.444,5.582c-3.813-4.044-11.44-7.473-15.976-8.4a3.659,3.659,0,0,1-1.953-1.153Z" transform="translate(-233.715 -83.827)" fill="#263238"/>
        <path id="Path_15632" data-name="Path 15632" d="M427.942,272.392a1.538,1.538,0,0,1-1.046,1.368,1.107,1.107,0,0,1-1.092,0c-1.538-.815-1.968-5.213-2.014-5.72a.354.354,0,0,1,.154-.292.277.277,0,0,1,.323,0,15.481,15.481,0,0,1,2.583,2.322A3.4,3.4,0,0,1,427.942,272.392Zm-1.814.83a.523.523,0,0,0,.538,0,1.092,1.092,0,0,0,.677-.861c0-.846-.984-2.183-2.829-3.644.246,1.753.815,4.09,1.615,4.521Z" transform="translate(-229.79 -76.661)" fill="#407bff"/>
        <path id="Path_15633" data-name="Path 15633" d="M425.518,267.962c.246,1.461-.569,4.69-1.83,5.382a1.169,1.169,0,0,1-1.4-.246,1.537,1.537,0,0,1-.507-1.261c.123-1.8,3.183-4.013,3.26-4.075a.323.323,0,0,1,.292,0,.153.153,0,0,1,0,.108S425.487,267.9,425.518,267.962Zm-2.783,4.613c.323.292.553.246.707.154a6.366,6.366,0,0,0,1.538-4.213c-.938.769-2.506,2.214-2.568,3.29a.861.861,0,0,0,.2.661Z" transform="translate(-230.872 -76.644)" fill="#407bff"/>
        <path id="Path_15634" data-name="Path 15634" d="M347.942,196.752S339.3,206.7,330.52,207.869c-6.858.923-6.519-5.013-6.519-5.013a12.3,12.3,0,0,0,1.538-3.321c2.383-7.688-5.458-13.254-5.458-13.254l7.027-3.66,15.376-8.042C338.208,189.326,347.942,196.752,347.942,196.752Z" transform="translate(-285.546 -126.721)" fill="#eec1bb"/>
        <path id="Path_15635" data-name="Path 15635" d="M341.078,178.66s-4.613,16.007-15.5,18.62c2.383-7.688-5.458-13.254-5.458-13.254l7.027-3.66Z" transform="translate(-285.524 -124.528)" opacity="0.2"/>
        <path id="Path_15636" data-name="Path 15636" d="M312.319,151.926c-13.716,6-12.716,15.668-8,23.218s1.015,7.8-4.613,13.27,1.538,7.088,4.736,10.963-9.226,5.643-1.153,13.177c0,0,3.321-4.92,7.227-3.4s12.931,3.89,20.527-4.874,15.914-6.612,15.914-6.612S326.819,145.606,312.319,151.926Z" transform="translate(-297.62 -139.186)" fill="#263238"/>
        <path id="Path_15637" data-name="Path 15637" d="M310.583,151.74s-14.946,18.451,8.3,30.383C345.149,195.608,310.583,151.74,310.583,151.74Z" transform="translate(-293.193 -139)" fill="#263238"/>
        <path id="Path_15638" data-name="Path 15638" d="M358.608,169.43c1.83,14.085-2.86,31.044-13.931,35.473-20.343,8.119-29.414,5.766-34.95-9.426-5.043-13.654-4.613-36.98,12.024-44.591S356.056,149.9,358.608,169.43Z" transform="translate(-292.63 -141.114)" fill="#eec1bb"/>
        <path id="Path_15639" data-name="Path 15639" d="M310.062,165.82a39.056,39.056,0,0,0,20.712-2.937s16.283,2.968,16.391,12.854,4.613,9.487,7.688,21.972c0,0,12.808-4.259,9.226-32.29-2.629-20.389-21.665-24.6-39.5-20.6C309.586,148.245,301.16,161.207,310.062,165.82Z" transform="translate(-292.888 -143.455)" fill="#263238"/>
        <path id="Path_15640" data-name="Path 15640" d="M321.93,169.7c.292,1.768-.415,3.383-1.538,3.567s-2.337-1.107-2.629-2.891.415-3.367,1.538-3.567S321.638,167.929,321.93,169.7Z" transform="translate(-286.827 -130.911)" fill="#263238"/>
        <path id="Path_15641" data-name="Path 15641" d="M312.566,170.715c.277,1.691-.4,3.229-1.538,3.4s-2.23-1.061-2.506-2.752.4-3.214,1.538-3.414S312.366,169.008,312.566,170.715Z" transform="translate(-291.793 -130.298)" fill="#263238"/>
        <path id="Path_15642" data-name="Path 15642" d="M316.305,164.107a.984.984,0,0,1-.338-.369.815.815,0,0,1,.492-1.046,8.042,8.042,0,0,1,7.365.784.815.815,0,0,1,.154,1.138h0a.861.861,0,0,1-1.138.169h0a6.32,6.32,0,0,0-5.874-.507.923.923,0,0,1-.661-.169Z" transform="translate(-287.783 -133.408)" fill="#263238"/>
        <path id="Path_15643" data-name="Path 15643" d="M307.528,166.8a.861.861,0,0,1-.477-.138.83.83,0,0,1,0-1.153,7.919,7.919,0,0,1,6.842-2.829.8.8,0,0,1,.677.923h0a.83.83,0,0,1-.923.677h0a6.366,6.366,0,0,0-5.4,2.368A.861.861,0,0,1,307.528,166.8Z" transform="translate(-292.675 -133.136)" fill="#263238"/>
        <path id="Path_15644" data-name="Path 15644" d="M314.085,170.78l3.075,7.242a9.825,9.825,0,0,1-5.72.63,23.064,23.064,0,0,0,2.645-7.873Z" transform="translate(-290.191 -128.764)" fill="#d4827d"/>
        <path id="Path_15645" data-name="Path 15645" d="M331.716,172.082s2.091-9.226,7.012-7.365,6.7,16.314.138,17.529S329.61,177.233,331.716,172.082Z" transform="translate(-279.668 -132.157)" fill="#eec1bb"/>
        <path id="Path_15646" data-name="Path 15646" d="M315.68,182.3a43.786,43.786,0,0,1,4.521,4.72c.338-.185.676-.369,1-.584,4.474-2.675,5.674-5.4,5.628-7.6a6.7,6.7,0,0,0-.861-3.075,7.137,7.137,0,0,0-1.061-1.538c-1.538,2.829-5.52,5.658-7.688,7.073A17.086,17.086,0,0,1,315.68,182.3Z" transform="translate(-287.911 -126.909)" fill="#263238"/>
        <path id="Path_15647" data-name="Path 15647" d="M316.67,181.365l1.368,1.353c4.213-2.522,6.842-4.874,7.4-6.95a7.134,7.134,0,0,0-1.061-1.538C322.836,177.121,318.853,180.027,316.67,181.365Z" transform="translate(-287.379 -126.909)" fill="#fff"/>
        <path id="Path_15648" data-name="Path 15648" d="M319.27,184.826c4.474-2.675,5.674-5.4,5.628-7.6a16.744,16.744,0,0,0-4.382,3.952A6.3,6.3,0,0,0,319.27,184.826Z" transform="translate(-285.981 -125.296)" fill="#de5753"/>
        <path id="Path_15649" data-name="Path 15649" d="M315.163,160.9c1.307,3.552,8.226,7.088,13.408,6.273s12.839,1.876,9.364,10.379-1.707,11.286,5.5,12.593-1.2,10.517,1.722,14.9c0,0,3.567-3.537,7.934-2.014a8.365,8.365,0,0,0,10.932-5.151c1.937-4.936,6.15-3.752,6.15-3.752s-1.891-16.422-16.745-25.54-11.978-15.637-26.324-15.96S315.163,160.9,315.163,160.9Z" transform="translate(-288.27 -138.53)" fill="#263238"/>
        <path id="Path_15650" data-name="Path 15650" d="M334.461,212.332s8.5-10.5,13.608-2.845c6.32,9.441-13.762,24.171-13.762,24.171s-14.454-11.824-10.609-20.773C328.556,201.584,334.461,212.332,334.461,212.332Z" transform="translate(-283.95 -109.457)" fill="#fff"/>
        <path id="Path_15651" data-name="Path 15651" d="M325.3,244.261c-4.736,11.87-2.429,52.2,6.965,79.033,0,0,12.424,3.844,47.22-6,28.63-8.1,45.79-19.328,45.79-19.328C415.147,277,397.8,227.393,393.682,225.84Z" transform="translate(-284.02 -99.163)" fill="#407bff"/>
        <path id="Path_15652" data-name="Path 15652" d="M425.28,298s-2.537,1.645-7.258,4.152c-2.245,1.169-4.982,2.552-8.18,4.013-2.845,1.322-6.074,2.722-9.656,4.136-2.445,1-5.074,1.984-7.857,2.968-3.952,1.384-8.257,2.768-12.824,4.059l-3.629,1c-2.2.584-4.305,1.122-6.32,1.538-4.89,1.169-9.226,2.03-13.054,2.645-3.075.492-5.7.846-8.088,1.061a78.391,78.391,0,0,1-8.78.415,22.811,22.811,0,0,1-3.229-.138,20.31,20.31,0,0,1-4.152-.6c-9.379-26.816-11.686-67.147-6.95-79.018l68.378-18.451C397.8,227.425,415.147,277.013,425.28,298Z" transform="translate(-284.02 -99.195)" opacity="0.2"/>
        <path id="Path_15653" data-name="Path 15653" d="M328.27,262.69l8.488,41.516a22.8,22.8,0,0,1-3.229-.138Z" transform="translate(-281.143 -79.352)" opacity="0.2"/>
        <path id="Path_15654" data-name="Path 15654" d="M341.65,311.312,335.5,248.7l14.177,61.5C346.725,310.743,344.034,311.1,341.65,311.312Z" transform="translate(-277.256 -86.873)" opacity="0.2"/>
        <path id="Path_15655" data-name="Path 15655" d="M357.352,309.1,345.62,245.89l18.052,61.674C361.473,308.1,359.366,308.64,357.352,309.1Z" transform="translate(-271.815 -88.384)" opacity="0.2"/>
        <path id="Path_15656" data-name="Path 15656" d="M373.436,304.6,358.06,241.91l23.295,59.721C378.848,302.63,376.219,303.553,373.436,304.6Z" transform="translate(-265.127 -90.524)" opacity="0.2"/>
        <path id="Path_15657" data-name="Path 15657" d="M394,294.858c-2.245,1.169-4.982,2.552-8.18,4.013L367.6,239.35Z" transform="translate(-259.998 -91.9)" opacity="0.2"/>
        <path id="Path_15658" data-name="Path 15658" d="M375.693,204.882a83.293,83.293,0,0,1-53.032,36.334,249.784,249.784,0,0,1-6.15-25.632c18.974,2.306,34-11.009,44.1-20.266,3.952-3.613,7.073-4.859,9.518-4.767C371.2,193.412,373.14,198.593,375.693,204.882Z" transform="translate(-287.465 -118.137)" opacity="0.2"/>
      </g>
      <g id="_Group_2" data-name="&lt;Group&gt;" transform="translate(0 35.891)">
        <path id="Path_15659" data-name="Path 15659" d="M289.959,234.938s-22.464,5.213-26.047,5.12S212.525,207,212.525,207L197.81,217.763s34.673,43.5,51.864,49.649,51.818,0,51.818,0Z" transform="translate(-170.142 -145.182)" fill="#e4897b"/>
        <path id="Path_15660" data-name="Path 15660" d="M301.534,267.453s-2.214.4-5.812.876c-3.875.538-9.333,1.169-15.376,1.538-10.44.661-22.526.507-30.752-2.414C232.4,261.3,197.73,217.8,197.73,217.8l14.715-10.763s47.8,32.951,51.387,33.028c2.107,0,10.763-1.738,17.56-3.214l1.922-.431c3.783-.83,6.566-1.538,6.566-1.538Z" transform="translate(-170.185 -145.161)" opacity="0.2"/>
        <path id="Path_15661" data-name="Path 15661" d="M267.017,258.582c-3.875.538-9.333,1.169-15.376,1.538-1.63-13.746,1.122-33.043,1.122-33.043l.523-1.907c.477.492.953.984,1.4,1.538C264.925,237.778,267.724,249.618,267.017,258.582Z" transform="translate(-141.48 -135.414)" opacity="0.2"/>
        <path id="Path_15662" data-name="Path 15662" d="M309.558,216.354c-14.823-5.828-60.228,15.376-60.228,15.376l13.839,38.025,30.245-6.781Z" transform="translate(-142.445 -140.698)" fill="#407bff"/>
        <path id="Path_15663" data-name="Path 15663" d="M309.553,216.358l-14.976,43.161-1.215,3.49-18.544,4.09-11.64,2.583L249.34,231.658S294.73,210.5,309.553,216.358Z" transform="translate(-142.439 -140.702)" opacity="0.2"/>
        <path id="Path_15664" data-name="Path 15664" d="M285.668,248.485l-1.215,3.49L265.91,256.08c3.89-10.425,13.27-20.25,13.27-20.25S282.132,241.565,285.668,248.485Z" transform="translate(-133.531 -129.683)" opacity="0.2"/>
        <path id="Path_15665" data-name="Path 15665" d="M219.17,229.86l5.52-9.072s-.077-10.1-.507-13.3S201.118,184.5,201.118,184.5s-20.973,3.306-21.3,10.225,12.424,28.523,14.561,29.753S204.024,236.948,219.17,229.86Z" transform="translate(-179.816 -157.279)" fill="#e4897b"/>
        <path id="Path_15666" data-name="Path 15666" d="M219.17,229.86l5.52-9.072s-.077-10.1-.507-13.3S201.118,184.5,201.118,184.5s-20.973,3.306-21.3,10.225,12.424,28.523,14.561,29.753S204.024,236.948,219.17,229.86Z" transform="translate(-179.816 -157.279)" opacity="0.2"/>
        <path id="Path_15667" data-name="Path 15667" d="M383.091,348.149,347.464,359.1l-6.1-22.757,26-6.15Z" transform="translate(-92.968 -78.954)" fill="#e4897b"/>
        <path id="Path_15668" data-name="Path 15668" d="M372.155,357.9,352.32,340.124a1.937,1.937,0,0,1-.384-2.368l9.825-17.421a3.229,3.229,0,0,1,4.413-1.184,3.863,3.863,0,0,1,.569.415c6.335,5.858,10.64,10.44,18.7,17.667,4.966,4.459,20.389,17.36,27.246,23.495s1.676,13.716-1.691,11.824c-15.038-8.534-27.908-13.223-35.181-13.223A5.228,5.228,0,0,1,372.155,357.9Z" transform="translate(-87.414 -85.121)" fill="#263238"/>
        <path id="Path_15669" data-name="Path 15669" d="M408.321,358.339l-35.626,10.932-6.1-22.757,26.016-6.135Z" transform="translate(-79.404 -73.476)" fill="#e4897b"/>
        <path id="Path_15670" data-name="Path 15670" d="M397.335,368.072,377.5,350.282a1.937,1.937,0,0,1-.384-2.368l9.825-17.344a3.229,3.229,0,0,1,4.413-1.2,3.074,3.074,0,0,1,.569.431c6.335,5.858,10.64,10.44,18.7,17.667,4.966,4.444,20.4,17.344,27.246,23.495s1.676,13.716-1.691,11.824c-15.038-8.549-27.908-13.239-35.165-13.239a5.32,5.32,0,0,1-3.675-1.476Z" transform="translate(-73.877 -79.626)" fill="#263238"/>
        <path id="Path_15671" data-name="Path 15671" d="M455.589,370.286l-21.234-1.722c11.67-23.218,16.191-51.279,9.733-76.081C429.9,237.99,320.049,303.092,320.049,303.092S214.738,313.733,206.2,363.859s79.448,53.355,79.448,53.355,81.493,5.966,128.329,0,64.856-12.009,64.856-12.009Z" transform="translate(-165.943 -110.916)" fill="#263238"/>
        <path id="Path_15672" data-name="Path 15672" d="M478.856,405.281S460.835,411.324,414,417.29c-34.12,4.351-86.644,2.353-112.645.953-9.687-.507-15.684-.953-15.684-.953s-29.876-1.107-53.14-11.947c-16.668-7.688-29.937-20.542-26.355-41.516,8.58-50.126,113.891-60.766,113.891-60.766s109.847-65.1,124.039-10.594a101.345,101.345,0,0,1,1.245,42.93,120.245,120.245,0,0,1-10.979,33.151l21.234,1.707Z" transform="translate(-165.961 -110.93)" fill="#fff" opacity="0.2"/>
        <path id="Path_15673" data-name="Path 15673" d="M408.6,328.11l-124.454,7.35L272.43,236.683a19.343,19.343,0,0,1,14.915-21.188c49.972-11.1,79.771-.108,79.771-.108a320.891,320.891,0,0,1,16.914,31.429,304.067,304.067,0,0,1,13.008,32.29C407.155,308.459,408.6,328.11,408.6,328.11Z" transform="translate(-130.102 -143.283)" fill="#407bff"/>
        <path id="Path_15674" data-name="Path 15674" d="M278.36,235.562S291.753,211.637,329.1,212.5C329.055,212.467,309.989,244.434,278.36,235.562Z" transform="translate(-126.838 -142.239)" opacity="0.2"/>
        <path id="Path_15675" data-name="Path 15675" d="M327.849,224.861c-14.146-.538-32.151-19.528-36.334-32.121L276.57,228.29a35.949,35.949,0,0,1,3.644,3.337,17.267,17.267,0,0,1,4.521,7.5c.6,2.414-2.906,8.349-2.906,8.349s11.917,4.228,29.538-4.874C321.822,237.223,327.849,224.861,327.849,224.861Z" transform="translate(-127.8 -152.849)" fill="#e4897b"/>
        <path id="Path_15676" data-name="Path 15676" d="M291.487,202c8.365,12.977-2.137,26.478-8.026,32.105a17.266,17.266,0,0,0-4.521-7.5Z" transform="translate(-126.526 -147.87)" opacity="0.2"/>
        <path id="Path_15677" data-name="Path 15677" d="M253.437,185.118s-1.968,21.957,11.009,30.752,8.611-44.591,8.611-44.591Z" transform="translate(-140.294 -164.386)" fill="#263238"/>
        <path id="Path_15678" data-name="Path 15678" d="M303.174,196.283c-.477-3.675,1.538-11.9-.584-14.961-7.242-10.763-24.6-12.562-35.365-5.3-12.67,8.4-14.346,26.047-10.21,40.931a17.805,17.805,0,0,0,7.488,22.8c6.965,3.906,14.438,5.843,22.049,3.567a21.326,21.326,0,0,0,13.239-7.965,15.607,15.607,0,0,0,3.475-5.751C307.28,220.593,305.3,211.136,303.174,196.283Z" transform="translate(-139.397 -164.187)" fill="#e4897b"/>
        <path id="Path_15679" data-name="Path 15679" d="M271.466,194.87c.369,1.353-.215,2.629-1.138,2.814s-1.845-.8-2.122-2.153.231-2.645,1.122-2.814S271.174,193.486,271.466,194.87Z" transform="translate(-132.337 -152.872)" fill="#263238"/>
        <path id="Path_15680" data-name="Path 15680" d="M261.368,196.919c.369,1.338-.231,2.629-1.122,2.814s-1.845-.8-2.137-2.168.231-2.629,1.122-2.8S261.061,195.612,261.368,196.919Z" transform="translate(-137.769 -151.769)" fill="#263238"/>
        <path id="Path_15681" data-name="Path 15681" d="M264.962,196a50.19,50.19,0,0,1-4.182,13.085,8.165,8.165,0,0,0,6.858-.108Z" transform="translate(-136.289 -151.096)" fill="#de5753"/>
        <path id="Path_15682" data-name="Path 15682" d="M275.411,191.471a.861.861,0,0,1-.83-.154,6.612,6.612,0,0,0-5.72-1.707.815.815,0,0,1-1-.569.8.8,0,0,1,.569-1h0a8.149,8.149,0,0,1,7.227,1.984.846.846,0,0,1,.108,1.153h0a1.645,1.645,0,0,1-.354.292Z" transform="translate(-132.499 -155.47)" fill="#263238"/>
        <path id="Path_15683" data-name="Path 15683" d="M255.53,195.872a.707.707,0,0,1-.461.123.8.8,0,0,1-.6-.984h0a8.165,8.165,0,0,1,4.89-5.7.8.8,0,0,1,1.03.507h0a.846.846,0,0,1-.507,1.046h0a6.6,6.6,0,0,0-3.8,4.613.861.861,0,0,1-.554.4Z" transform="translate(-139.696 -154.72)" fill="#263238"/>
        <path id="Path_15684" data-name="Path 15684" d="M267,212.639a53.4,53.4,0,0,1,6.612,3.813c.308-.323.63-.63.923-.969,4.152-4.474,4.613-7.934,3.829-10.394a7.981,7.981,0,0,0-1.984-3.152,7.69,7.69,0,0,0-1.676-1.307c-.784,3.675-4.321,8.149-6.32,10.456C267.477,212.07,267,212.639,267,212.639Z" transform="translate(-132.945 -148.607)" fill="#263238"/>
        <path id="Path_15685" data-name="Path 15685" d="M267.85,211.086l1.984,1.076c3.89-4.228,6.074-7.688,6.012-10.225a7.689,7.689,0,0,0-1.676-1.307C273.385,204.274,269.849,208.779,267.85,211.086Z" transform="translate(-132.488 -148.607)" fill="#fff"/>
        <path id="Path_15686" data-name="Path 15686" d="M271.941,213.924c4.152-4.474,4.613-7.934,3.829-10.394a19.989,19.989,0,0,0-3.629,5.889A7.4,7.4,0,0,0,271.941,213.924Z" transform="translate(-130.428 -147.048)" fill="#de5753"/>
        <path id="Path_15687" data-name="Path 15687" d="M302.373,208.625s-11.117-11.778-8.626-23.064c0,0-12.3-7.319-24.925,6.858-10.64,12.024-22.48.092-19.543-13.254,1.983-8.98,11.025-2.091,11.025-2.091s4.966-9.687,23.064-10.256,29.215,10.548,31.075,17.3c5.489,19.912.953,34.812-6.5,44.3Z" transform="translate(-142.716 -166.796)" fill="#263238"/>
        <path id="Path_15688" data-name="Path 15688" d="M298.63,199.062a16.36,16.36,0,0,1-7.55,9.979c-4.982,2.875-8.887-1.23-8.718-6.673.2-4.843,2.983-12.3,8.565-12.9S299.906,193.9,298.63,199.062Z" transform="translate(-124.689 -154.635)" fill="#e4897b"/>
        <path id="Path_15689" data-name="Path 15689" d="M280.876,232s0,3.721,7.227,3.367,31.583-8.349,35.688-22.9h5.274s.83,16.76-23.4,25.125-27.293-2.03-27.293-2.03Z" transform="translate(-126.832 -142.242)" fill="#407bff"/>
        <path id="Path_15690" data-name="Path 15690" d="M280.876,232s0,3.721,7.227,3.367,31.583-8.349,35.688-22.9h5.274s.83,16.76-23.4,25.125-27.293-2.03-27.293-2.03Z" transform="translate(-126.832 -142.242)" opacity="0.2"/>
        <path id="Path_15691" data-name="Path 15691" d="M295.54,400.2s-.323.292-.923.769c-9.687-.507-15.684-.953-15.684-.953s-29.876-1.107-53.14-11.947c-12.178-19.6-11.64-46.759,14.638-62.166,36.349-21.311,87.951-23.064,87.951-23.064S251.5,328.4,250.78,353.966,269.078,399.187,295.54,400.2Z" transform="translate(-159.225 -93.658)" opacity="0.2"/>
        <path id="Path_15692" data-name="Path 15692" d="M396.277,312.81A120.242,120.242,0,0,1,385.3,345.961l-88.428.215S373.351,334.859,396.277,312.81Z" transform="translate(-116.887 -88.298)" opacity="0.2"/>
        <path id="Path_15693" data-name="Path 15693" d="M419.035,271.472h0a114.019,114.019,0,0,1-10.271,15.1l-5.966-8.98-47.666-19.635-14.992-6.15,3.613-35.6s11.44,1.968,21.019,4.613c2.23.615,4.351,1.276,6.15,1.953,9.841,3.6,44.222,22.557,51.187,30.752C425.4,257.4,422.787,264.676,419.035,271.472Z" transform="translate(-93.624 -140.231)" fill="#e4897b"/>
        <path id="Path_15694" data-name="Path 15694" d="M364.783,220.817l-9.641,37.149-14.992-6.15,3.613-35.6S355.2,218.157,364.783,220.817Z" transform="translate(-93.619 -140.226)" opacity="0.2"/>
        <path id="Path_15695" data-name="Path 15695" d="M397.127,252.16a114.02,114.02,0,0,1-10.271,15.1l-5.966-8.98S390.377,257.742,397.127,252.16Z" transform="translate(-71.716 -120.904)" opacity="0.2"/>
        <path id="Path_15696" data-name="Path 15696" d="M369.43,267.357c-22.9,5.1-45.59-34.2-45.59-34.2a80.847,80.847,0,0,1,32.536,1.937,304.059,304.059,0,0,1,13.054,32.259Z" transform="translate(-102.387 -131.565)" opacity="0.1"/>
        <path id="Path_15697" data-name="Path 15697" d="M316.441,217.757c-4.536,14.992,9.226,36.334,47.312,49.342L375.1,219.817S321.161,202.181,316.441,217.757Z" transform="translate(-106.812 -142.854)" fill="#407bff"/>
        <path id="Path_15698" data-name="Path 15698" d="M316.441,217.757c-4.536,14.992,9.226,36.334,47.312,49.342L375.1,219.817S321.161,202.181,316.441,217.757Z" transform="translate(-106.812 -142.854)" opacity="0.2"/>
      </g>
      <path id="Path_15699" data-name="Path 15699" d="M315.482,217l-9.718,2.353s-4.782-1.23-6.765-.8-12.5,13.716-11.348,15.13,8.318,6.3,10.932,4.8S308.977,225.1,308.977,225.1l9.395-2.414Z" transform="translate(-121.89 -103.916)" fill="#eec1bb"/>
      <path id="Path_15700" data-name="Path 15700" d="M377.053,189.122c-6.6-4.2-29.922,30.86-35,32.151s-39.517,9.7-39.517,9.7l4.782,9.487s37.364-2.568,44.7-6.627,25.786-23.71,29.215-30.844S377.053,189.122,377.053,189.122Z" transform="translate(-113.838 -119.091)" fill="#407bff"/>
      <path id="Path_15701" data-name="Path 15701" d="M377.053,189.122c-6.6-4.2-29.922,30.86-35,32.151s-39.517,9.7-39.517,9.7l4.782,9.487s37.364-2.568,44.7-6.627,25.786-23.71,29.215-30.844S377.053,189.122,377.053,189.122Z" transform="translate(-113.838 -119.091)" fill="#fff" opacity="0.4"/>
    </g>
    <g id="Character_1" data-name="Character 1" transform="translate(111.392 261.908)">
      <path id="Path_15702" data-name="Path 15702" d="M213.788,259.159s-9.026,11.086-17.052,16.345a19.838,19.838,0,0,1-4.474,2.276c-8.657,2.829-16.821-41.162-16.821-41.162l.292-2.122,3.075-23.326c6.3,1.322,16.237,49.4,17.052,51.218s11.332-9.748,11.332-9.748Z" transform="translate(-17.073 -128.381)" fill="#eec1bb"/>
      <path id="Path_15703" data-name="Path 15703" d="M196.736,268.58a19.839,19.839,0,0,1-4.474,2.276c-8.657,2.829-16.821-41.162-16.821-41.162l.292-2.122,6.8-3.552S187.064,255.556,196.736,268.58Z" transform="translate(-17.073 -121.472)" opacity="0.2"/>
      <path id="Path_15704" data-name="Path 15704" d="M192.694,243.535s3.413-8.611,7.211-10.471,15.176-2.752,17.544-1.722,4.29,6.519,4.29,6.519-11.824,11.963-14.684,12.655S192.263,251.392,192.694,243.535Z" transform="translate(-7.803 -117.77)" fill="#eec1bb"/>
      <path id="Path_15705" data-name="Path 15705" d="M109.09,350.641l1.245-14.1,20.066-.569,18.313-.492,1.307,16.991-21.65-.969Z" transform="translate(-52.744 -61.55)" fill="#e4897b"/>
      <path id="Path_15706" data-name="Path 15706" d="M131.522,340.159c1.2.861-9.871,15.376-9.871,15.376S106,358.487,97.833,366.083s-10.194-1.061-3.444-11.148l16.7-25C115.961,322.769,119.036,331.333,131.522,340.159Z" transform="translate(-62.829 -65.968)" fill="#263238"/>
      <path id="Path_15707" data-name="Path 15707" d="M104.891,350.843a22.8,22.8,0,0,1,6.15-4.967.447.447,0,0,1,.2-.077h.123a.523.523,0,0,1,.308.2c.108.154,2.783,3.782,2.26,6.4a2.706,2.706,0,0,1-1.353,1.907,1.661,1.661,0,0,1-1.937.154c-.753-.584-.83-2.2-.661-3.859a7.426,7.426,0,0,1-2.645,3.075,1.907,1.907,0,0,1-1.538.123c-1.046-.369-1.322-.984-1.368-1.445A2.522,2.522,0,0,1,104.891,350.843Zm5.428-3.429c-2.429,1.538-5.1,3.8-5,4.905,0,.092,0,.384.723.63a1,1,0,0,0,.83-.077c1.338-.615,2.691-3.506,3.444-5.458Zm2.353,5.489a1.722,1.722,0,0,0,.323-.646,7.857,7.857,0,0,0-1.538-4.767c-.646,2.8-.923,5.751-.261,6.243.2.154.63,0,.861-.2a2.106,2.106,0,0,0,.615-.63Z" transform="translate(-55.249 -56.002)" fill="#407bff"/>
      <path id="Path_15708" data-name="Path 15708" d="M92.28,357.852l4.059-13.562,19.774,3.49,18.036,3.214L132,367.892l-21.019-5.3Z" transform="translate(-61.781 -56.814)" fill="#e4897b"/>
      <path id="Path_15709" data-name="Path 15709" d="M104.33,361.322l5.136-14.792,18.128,3.229-2.122,16.914Z" transform="translate(-55.303 -55.61)" opacity="0.2"/>
      <path id="Path_15710" data-name="Path 15710" d="M118.028,350.9c1.015,1.076-12.747,12.993-12.747,12.993s-15.93-.261-25.447,5.535S70.054,366.349,78.7,357.8s15.253-14.961,21.388-21.111S107.541,339.764,118.028,350.9Z" transform="translate(-72.445 -61.96)" fill="#263238"/>
      <path id="Path_15711" data-name="Path 15711" d="M87.536,357.164a22.542,22.542,0,0,1,6.981-3.629.323.323,0,0,1,.2,0h.123a.43.43,0,0,1,.277.246c0,.169,1.968,4.259.923,6.719a2.737,2.737,0,0,1-1.722,1.538,1.661,1.661,0,0,1-1.922-.246c-.63-.723-.369-2.306.123-3.906a7.35,7.35,0,0,1-3.214,2.537,1.937,1.937,0,0,1-1.538-.2,1.722,1.722,0,0,1-1.046-1.676A2.522,2.522,0,0,1,87.536,357.164Zm6.012-2.26c-2.691,1.076-5.766,2.691-5.889,3.8,0,.092,0,.384.584.769a1.046,1.046,0,0,0,.815.092C90.519,359.179,92.41,356.657,93.548,354.9Zm1.2,5.843a1.969,1.969,0,0,0,.415-.615,7.9,7.9,0,0,0-.523-4.966c-1.2,2.614-2.06,5.443-1.538,6.058.169.185.63,0,.892,0a1.8,1.8,0,0,0,.753-.477Z" transform="translate(-64.771 -51.852)" fill="#407bff"/>
      <path id="Path_15712" data-name="Path 15712" d="M128.531,247.9c2.66,8.534,4.736,15.93,6.381,22.541,5.182,20.466,6.258,33.566,7.35,50.741l69.085-5.951c2.768-48.665,1.538-75.343.277-88.782-1.384-14.254-3.583-14.776-3.583-14.776s-15.376-1.538-28.876-1.415a220.5,220.5,0,0,0-31.014,3.275,200.245,200.245,0,0,0-22.049,4.936,6.519,6.519,0,0,0-4.49,8.3l2.107,6.35C125.455,238.447,126.993,243.336,128.531,247.9Z" transform="translate(-46.183 -128.872)" fill="#407bff"/>
      <path id="Path_15713" data-name="Path 15713" d="M211.293,315.241l-69.085,5.966c-1.092-17.1-2.168-30.168-7.3-50.541v-.2c-1.538-6.366-3.567-13.439-6.15-21.527-.092-.323-.2-.63-.292-.953-1.415-4.613-2.983-9.456-4.751-14.73L121.62,226.8a6.535,6.535,0,0,1,4.428-8.38,203.823,203.823,0,0,1,22.049-4.936,220.488,220.488,0,0,1,31.014-3.26c13.439-.108,28.876,1.4,28.876,1.4s2.2.523,3.583,14.776C212.831,239.836,214.061,266.575,211.293,315.241Z" transform="translate(-46.192 -128.893)" fill="#fff" opacity="0.7"/>
      <path id="Path_15714" data-name="Path 15714" d="M135.856,166.357s5.289-7.873,19.328-8.887,29.768,3.075,37.349,22.341l-6.15,1.538a143.4,143.4,0,0,1,5.274,44.668S156.829,225,125.062,233.6c0,0-4.8-23.064-1.307-45.759S135.856,166.357,135.856,166.357Z" transform="translate(-45.544 -157.327)" fill="#263238"/>
      <path id="Path_15715" data-name="Path 15715" d="M160.778,232.215c-16.068-2.06-20.958-9-20.958-9,10.225-9.656,1.722-26.37,1.722-26.37l19.4,3.613a57.491,57.491,0,0,0-.753,8.18c-.138,11.778,5.182,11.886,5.182,11.886C168.789,226.956,160.778,232.215,160.778,232.215Z" transform="translate(-36.223 -136.079)" fill="#eec1bb"/>
      <path id="Path_15716" data-name="Path 15716" d="M160.345,200.493a57.491,57.491,0,0,0-.753,8.18c-13.1,0-18.651-11.793-18.651-11.793Z" transform="translate(-35.621 -136.063)" opacity="0.2"/>
      <path id="Path_15717" data-name="Path 15717" d="M178.256,210.512c-.154.569-.308,1.122-.492,1.645-2.245,6.858-7.058,11.086-15.545,11.255a25.719,25.719,0,0,1-3.721-.138,17.8,17.8,0,0,1-2.445-.323c-29-4.736-30.414-57.445-2.4-59,16.914-.923,22.787,7.826,24.986,25.14C179.671,197.335,179.732,204.715,178.256,210.512Z" transform="translate(-39.648 -153.801)" fill="#eec1bb"/>
      <path id="Path_15718" data-name="Path 15718" d="M155.71,180.06A35.888,35.888,0,0,0,161,186.779a4.613,4.613,0,0,1-4.336,2.153Z" transform="translate(-27.68 -145.106)" fill="#d4827d"/>
      <path id="Path_15719" data-name="Path 15719" d="M150.111,180.365c.123,1.384-.538,2.568-1.461,2.629s-1.768-.984-1.876-2.368.554-2.568,1.538-2.645S150,178.981,150.111,180.365Z" transform="translate(-32.491 -146.225)" fill="#263238"/>
      <path id="Path_15720" data-name="Path 15720" d="M147.48,178.545l2.921-1.415S149.11,179.775,147.48,178.545Z" transform="translate(-32.105 -146.681)" fill="#263238"/>
      <path id="Path_15721" data-name="Path 15721" d="M161.312,179.289c.108,1.4-.554,2.568-1.538,2.645s-1.753-.984-1.861-2.368.554-2.568,1.538-2.645S161.2,177.905,161.312,179.289Z" transform="translate(-26.502 -146.795)" fill="#263238"/>
      <path id="Path_15722" data-name="Path 15722" d="M158.66,177.495l2.921-1.415S160.275,178.709,158.66,177.495Z" transform="translate(-26.094 -147.246)" fill="#263238"/>
      <path id="Path_15723" data-name="Path 15723" d="M144.019,175.955a.707.707,0,0,1-.446-.154.753.753,0,0,1-.169-1.076c2.614-3.613,7.688-3.275,7.857-3.26a.769.769,0,0,1,.707.815.8.8,0,0,1-.83.723s-4.382-.277-6.489,2.629A.753.753,0,0,1,144.019,175.955Z" transform="translate(-34.379 -149.734)" fill="#263238"/>
      <path id="Path_15724" data-name="Path 15724" d="M163.445,173.24a.692.692,0,0,1-.384-.108,7.119,7.119,0,0,0-6.15-.969.784.784,0,0,1-1-.415.769.769,0,0,1,.4-1,8.6,8.6,0,0,1,7.5,1.061.769.769,0,0,1-.4,1.43Z" transform="translate(-27.604 -150.341)" fill="#263238"/>
      <path id="Path_15725" data-name="Path 15725" d="M138.5,195.672s7.135-14.3,5.351-24.925c0,0,32.674-15.5,36.2,18.344,0,0,1.615-30.306-27.431-29.384s-26.585,43.33-10.917,55.154C141.7,214.861,134.086,204.605,138.5,195.672Z" transform="translate(-41.375 -156.059)" fill="#263238"/>
      <path id="Path_15726" data-name="Path 15726" d="M141.824,187.549a7.411,7.411,0,0,0-8.334-6.335c-5.2.861-7.1,11.732,6.043,13.592C141.409,195.083,142.362,193.222,141.824,187.549Z" transform="translate(-41.748 -144.522)" fill="#eec1bb"/>
      <path id="Path_15727" data-name="Path 15727" d="M160.056,192.209a46.006,46.006,0,0,0-3.736,5.689c-.384-.123-.769-.261-1.138-.415-5.089-1.907-6.827-4.474-7.2-6.735a6.9,6.9,0,0,1,.323-3.306,6.689,6.689,0,0,1,.8-1.722c2.107,2.629,6.7,4.782,9.226,5.812C159.379,191.978,160.056,192.209,160.056,192.209Z" transform="translate(-31.872 -142.063)" fill="#263238"/>
      <path id="Path_15728" data-name="Path 15728" d="M158.2,191.532l-1.153,1.661c-4.8-1.814-7.919-3.736-8.872-5.751a6.689,6.689,0,0,1,.8-1.722C151.076,188.349,155.674,190.5,158.2,191.532Z" transform="translate(-31.734 -142.063)" fill="#fff"/>
      <path id="Path_15729" data-name="Path 15729" d="M155.156,195.725c-5.09-1.907-6.827-4.474-7.2-6.735a17.421,17.421,0,0,1,5.228,3.244A6.443,6.443,0,0,1,155.156,195.725Z" transform="translate(-31.847 -140.305)" fill="#de5753"/>
      <path id="Path_15730" data-name="Path 15730" d="M318.338,377.9c-2.137,19.451-36.457,29.584-86.2,31.044h0c-35.15,1.03-77.972-2.26-122.609-9.687l2.122-23.756,20.958-5.059h0c-.185-.384-3.767-8.2-2.153-24.709,1.215-12.532,5.443-30.091,16.452-53.232l70.73-6.258,10.3,21.619s76.773,21.111,89.474,61.643a20.5,20.5,0,0,1,.923,8.4Z" transform="translate(-52.507 -88.022)" fill="#407bff"/>
      <path id="Path_15731" data-name="Path 15731" d="M284.441,366.93c-2.137,19.451-36.457,29.584-86.2,31.044,34.227-4.613,46.344-17.1,38.748-38.44s-62.319-51.71-64.411-52.894c63.211,24.371,78.111,61.074,78.111,61.074C262.407,370.558,275.8,368.775,284.441,366.93Z" transform="translate(-18.611 -77.055)" opacity="0.2"/>
      <path id="Path_15732" data-name="Path 15732" d="M193.97,346.1c-27.569-4.152-68.531,3.536-68.531,3.536h0c-.185-.384-3.767-8.2-2.153-24.709C154.207,327.267,193.97,346.1,193.97,346.1Z" transform="translate(-45.336 -67.222)" opacity="0.2"/>
      <path id="Path_15733" data-name="Path 15733" d="M135.46,284.476l69.085-5.966v11.84l-70.715,6.258Z" transform="translate(-39.443 -92.178)" fill="#263238"/>
      <path id="Path_15734" data-name="Path 15734" d="M171.917,280.253a4.305,4.305,0,0,0-3.275-1.107l-8.626.738a4.259,4.259,0,0,0-3.906,4.275v5.535a4.275,4.275,0,0,0,4.29,4.29h.369l8.626-.769a4.244,4.244,0,0,0,3.906-4.259v-5.489a4.336,4.336,0,0,0-1.384-3.214ZM169.2,291.016l-8.626.769a2.076,2.076,0,0,1-2.26-2.076v-5.551a2.076,2.076,0,0,1,1.907-2.076l8.626-.738h.185a2.091,2.091,0,0,1,1.4.554,2.06,2.06,0,0,1,.661,1.538v.83a2.243,2.243,0,0,0-.338,0l-2.414.184a1.538,1.538,0,0,0,.231,2.921l2.414-.185h.108V289a2.045,2.045,0,0,1-1.891,1.968Z" transform="translate(-27.465 -91.845)" fill="#fff"/>
      <path id="Path_15735" data-name="Path 15735" d="M164.49,249.614s2-9.041,5.458-11.471,14.546-5.136,17.052-4.49,5.274,5.751,5.274,5.751-9.779,13.7-12.485,14.838S165.274,257.487,164.49,249.614Z" transform="translate(-22.96 -116.345)" fill="#eec1bb"/>
      <path id="Path_15736" data-name="Path 15736" d="M147.175,267.639c-2.891,2.8-9.364-1.215-14.884-5.674v-.2c-1.538-6.366-3.567-13.439-6.15-21.527l3.2-13.839S152.679,262.3,147.175,267.639Z" transform="translate(-43.577 -120.193)" opacity="0.2"/>
      <path id="Path_15737" data-name="Path 15737" d="M122.866,217.954c-9.641,9.226,15.376,51.541,27.231,62.073s41.516-17.237,41.516-17.237V253.35s-26.785,13.285-31.921,12.47c-2.353-.369-11.225-14.161-17.114-26.8C135.567,223.858,131,210.127,122.866,217.954Z" transform="translate(-46.5 -125.954)" fill="#eec1bb"/>
    </g>
    <g id="Character_2" data-name="Character 2" transform="translate(232.333 308.902)">
      <g id="_Group_3" data-name="&lt;Group&gt;">
        <path id="Path_15738" data-name="Path 15738" d="M214.17,244.049s17.882,9.7,23.771,9.518,24.141-18.9,24.141-18.9l7.181,3.075s-19.343,24.356-25.125,25.309-27.585-4.613-27.585-4.613Z" transform="translate(-117.193 -162.741)" fill="#e4897b"/>
        <path id="Path_15739" data-name="Path 15739" d="M205.41,235.05c14.238.784,26.139,11.717,26.139,11.717l-4.613,17.052-17.683-7.965Z" transform="translate(-121.902 -162.536)" fill="#263238"/>
        <path id="Path_15740" data-name="Path 15740" d="M231.541,246.767l-4.613,17.052-2.091-.938-15.591-7.027-.83-4.505-3.075-16.3C219.686,235.85,231.541,246.767,231.541,246.767Z" transform="translate(-121.94 -162.536)" fill="#fff" opacity="0.4"/>
        <path id="Path_15741" data-name="Path 15741" d="M223.8,259.806l-15.591-7.027-.83-4.505,2.429-7.5S222.941,243.584,223.8,259.806Z" transform="translate(-120.843 -159.461)" opacity="0.2"/>
        <path id="Path_15742" data-name="Path 15742" d="M251.887,293.22s32.29,18.913,44.083,65.026l-8.918,6.8s-11.855-36.534-46.282-53.57Z" transform="translate(-102.892 -131.263)" fill="#e4897b"/>
        <path id="Path_15743" data-name="Path 15743" d="M282.359,332.978l-14.1,3.413a.907.907,0,0,0-.723,1.076h0l2.014,11.317a2.276,2.276,0,0,0,2.722,1.691c4.9-1.261,7.165-2.122,13.362-3.66,3.8-.938,11.409-2.414,16.406-4.505s2.8-6.981.492-6.535c-5.458,1.03-13.639-.692-17.852-2.614a3.69,3.69,0,0,0-2.322-.184Z" transform="translate(-88.513 -109.947)" fill="#263238"/>
        <path id="Path_15744" data-name="Path 15744" d="M281.722,334.881a16.33,16.33,0,0,1-3.46.369.292.292,0,0,1-.277-.169.338.338,0,0,1,0-.338c.338-.369,3.306-3.659,4.982-3.429a1.123,1.123,0,0,1,.877.661,1.538,1.538,0,0,1,0,1.722,3.474,3.474,0,0,1-2.122,1.184Zm1.23-2.921c-.892-.123-2.737,1.43-3.967,2.722,2.353-.108,3.982-.569,4.444-1.292a1.138,1.138,0,0,0,0-1.092.538.538,0,0,0-.431-.338Z" transform="translate(-82.909 -110.79)" fill="#407bff"/>
        <path id="Path_15745" data-name="Path 15745" d="M278.518,336.008a.139.139,0,0,1-.108,0,.292.292,0,0,1-.215-.185c0-.108-1.2-3.69-.246-5.228a1.537,1.537,0,0,1,1.153-.707,1.153,1.153,0,0,1,1.276.63c.615,1.292-.615,4.367-1.691,5.412A.215.215,0,0,1,278.518,336.008Zm.523-5.412a.892.892,0,0,0-.554.415c-.584.923-.185,3,.138,4.182a6.335,6.335,0,0,0,1.215-4.336c0-.154-.231-.338-.646-.277Z" transform="translate(-83.103 -111.563)" fill="#407bff"/>
        <path id="Path_15746" data-name="Path 15746" d="M231.441,307.27s21.865,30.414,13.839,77.311l-10.917,2.583s4-38.194-20.542-67.732Z" transform="translate(-117.381 -123.71)" fill="#e4897b"/>
        <path id="Path_15747" data-name="Path 15747" d="M242.111,356.321l-14.254-2.614a.923.923,0,0,0-1.092.692h0l-2.752,11.178a2.291,2.291,0,0,0,1.8,2.66c5,.83,7.411.969,13.7,2.076,3.859.692,11.409,2.429,16.821,2.537s5.382-5.228,3.075-5.751c-5.412-1.292-12.193-6.15-15.253-9.641a3.583,3.583,0,0,0-2.045-1.138Z" transform="translate(-111.922 -98.756)" fill="#263238"/>
        <path id="Path_15748" data-name="Path 15748" d="M239.671,358.383a15.374,15.374,0,0,1-3.306-1.076.231.231,0,0,1-.185-.261.292.292,0,0,1,.169-.277c.446-.215,4.505-2.014,5.951-1.122a1.138,1.138,0,0,1,.538.969,1.63,1.63,0,0,1-.677,1.538,3.4,3.4,0,0,1-2.491.231Zm2.306-2.168c-.769-.477-3.075.2-4.72.861,2.183.876,3.859,1.107,4.613.63a1.123,1.123,0,0,0,.415-1.015.553.553,0,0,0-.261-.477Z" transform="translate(-105.361 -97.835)" fill="#407bff"/>
        <path id="Path_15749" data-name="Path 15749" d="M236.427,358.535a.215.215,0,0,1-.138,0,.277.277,0,0,1-.108-.261c0-.108.4-3.859,1.891-4.874a1.538,1.538,0,0,1,1.353-.169,1.153,1.153,0,0,1,.907,1.092c0,1.43-2.353,3.736-3.752,4.259a.154.154,0,0,1-.154-.046Zm2.66-4.721a.83.83,0,0,0-.677.154c-.907.584-1.384,2.66-1.538,3.859a6.243,6.243,0,0,0,2.875-3.46c0-.169,0-.4-.477-.523Z" transform="translate(-105.361 -99.047)" fill="#407bff"/>
        <path id="Path_15750" data-name="Path 15750" d="M254.451,314.136s-17.19-42.423-19.328-67.255a12.824,12.824,0,0,0-10.948-11.624,79.617,79.617,0,0,0-20.558.154c-23.064,2.829-33.1,9.918-33.1,9.918s-.554,42.008,8.134,80.6Z" transform="translate(-140.667 -162.743)" fill="#263238"/>
        <path id="Path_15751" data-name="Path 15751" d="M254.451,314.135l-75.8,11.763a316.962,316.962,0,0,1-5.658-35.165c-.876-8.088-1.445-15.653-1.814-22.2-.784-13.839-.661-23.233-.661-23.233s9.979-7.042,33.043-9.871a79.064,79.064,0,0,1,20.558-.169,12.839,12.839,0,0,1,10.948,11.624C237.26,271.713,254.451,314.135,254.451,314.135Z" transform="translate(-140.667 -162.742)" fill="#fff" opacity="0.4"/>
        <path id="Path_15752" data-name="Path 15752" d="M207.064,238.045a10.564,10.564,0,0,0,.215,8.134,12.064,12.064,0,0,0,.692,1.322,17.175,17.175,0,0,0,1.384,1.876s1.814,7.181-6.827,6.642c-13.239-.846-18.528-9.795-18.528-9.795a19.574,19.574,0,0,0,4.8-15.376,26.448,26.448,0,0,0-2.2-8.149l16.914,6.243,7.688,2.845a17.375,17.375,0,0,0-4.136,6.258Z" transform="translate(-133.413 -169.176)" fill="#e4897b"/>
        <path id="Path_15753" data-name="Path 15753" d="M206.161,238.018a10.564,10.564,0,0,0,.215,8.134,12.064,12.064,0,0,0,.692,1.322c-9.533-1.676-15.976-10.763-19.189-16.575a26.448,26.448,0,0,0-2.2-8.149l16.914,6.243,7.688,2.845a17.375,17.375,0,0,0-4.121,6.181Z" transform="translate(-132.509 -169.149)" opacity="0.2"/>
        <path id="Path_15754" data-name="Path 15754" d="M207.423,194.28s20.3,12.3,2.414,31.413C189.617,247.22,207.423,194.28,207.423,194.28Z" transform="translate(-124.715 -184.455)" fill="#263238"/>
        <path id="Path_15755" data-name="Path 15755" d="M178.8,224.963c3,13.839,13.116,28.277,25.048,28.707,21.865.815,29.63-4.459,29.722-20.619.169-14.561-8.1-36.365-26.324-38.01S174.636,205.712,178.8,224.963Z" transform="translate(-136.596 -184.124)" fill="#e4897b"/>
        <path id="Path_15756" data-name="Path 15756" d="M225.2,205.443a39.316,39.316,0,0,1-20.5,4.2s-8.334,2.6-5.1,11.947-7.2,16.16-5.812,28.938c0,0-13.5.277-19.528-27.293-4.382-20.1,12.132-30.46,30.276-32.69C219.727,188.683,231.981,198.078,225.2,205.443Z" transform="translate(-139.033 -186.592)" fill="#263238"/>
        <path id="Path_15757" data-name="Path 15757" d="M199.765,215.384c.323,1.768,1.538,3.075,2.706,2.814s1.814-1.83,1.538-3.6-1.538-3.075-2.691-2.829S199.458,213.677,199.765,215.384Z" transform="translate(-124.976 -175.068)" fill="#263238"/>
        <path id="Path_15758" data-name="Path 15758" d="M208.906,213.212c.292,1.691,1.538,2.906,2.568,2.691s1.753-1.753,1.445-3.444-1.538-2.891-2.583-2.691S208.6,211.474,208.906,213.212Z" transform="translate(-120.063 -176.14)" fill="#263238"/>
        <path id="Path_15759" data-name="Path 15759" d="M204.591,208.158a.984.984,0,0,0,.215-.461.846.846,0,0,0-.83-.815,7.965,7.965,0,0,0-6.658,3.214.8.8,0,0,0,.231,1.122h0a.846.846,0,0,0,1.122-.215h0a6.335,6.335,0,0,1,5.366-2.46.846.846,0,0,0,.554-.384Z" transform="translate(-126.327 -177.682)" fill="#263238"/>
        <path id="Path_15760" data-name="Path 15760" d="M213.711,207.416a.938.938,0,0,0,.4-.292.846.846,0,0,0-.323-1.107,7.965,7.965,0,0,0-7.4-.369.815.815,0,0,0-.338,1.107h0a.83.83,0,0,0,1.092.323h0a6.4,6.4,0,0,1,5.889.415A.877.877,0,0,0,213.711,207.416Z" transform="translate(-121.608 -178.74)" fill="#263238"/>
        <path id="Path_15761" data-name="Path 15761" d="M207.487,213.63l-.477,7.857a9.641,9.641,0,0,0,5.582-1.322,22.849,22.849,0,0,1-5.1-6.535Z" transform="translate(-121.042 -174.052)" fill="#de5753"/>
        <path id="Path_15762" data-name="Path 15762" d="M193.4,220.415s-5.074-8-9.072-4.613-.83,17.621,5.766,16.56S197.074,224.566,193.4,220.415Z" transform="translate(-134.185 -173.333)" fill="#e4897b"/>
        <path id="Path_15763" data-name="Path 15763" d="M212.144,223.3a45.241,45.241,0,0,0-2.168,6.15l-1.153-.108c-5.182-.6-7.4-2.583-8.272-4.613a6.6,6.6,0,0,1-.461-3.075,6.151,6.151,0,0,1,.354-1.784c2.552,1.953,7.35,2.875,9.933,3.26C211.452,223.253,212.144,223.3,212.144,223.3Z" transform="translate(-124.777 -170.697)" fill="#263238"/>
        <path id="Path_15764" data-name="Path 15764" d="M210.367,223.14l-.692,1.814c-4.874-.584-8.242-1.63-9.595-3.29a6.151,6.151,0,0,1,.354-1.784C203.032,221.756,207.783,222.678,210.367,223.14Z" transform="translate(-124.768 -170.692)" fill="#fff"/>
        <path id="Path_15765" data-name="Path 15765" d="M208.652,227.613c-5.182-.6-7.4-2.583-8.272-4.613a16.331,16.331,0,0,1,5.628,1.8A6.274,6.274,0,0,1,208.652,227.613Z" transform="translate(-124.607 -169.014)" fill="#de5753"/>
        <path id="Path_15766" data-name="Path 15766" d="M202.217,191.626c13.516.784,19.789-3.736,19.789-3.736,8.149,7.98.185,26.924-24.448,23.064S197.851,191.38,202.217,191.626Z" transform="translate(-131.887 -187.89)" fill="#263238"/>
        <path id="Path_15767" data-name="Path 15767" d="M301.387,306.3l-13.5,24.925-4.336,8-27.108-10.656-16.391,25.309s-71.622-21.7-65.21-57.522l70.73-21.88S278,282.635,301.387,306.3Z" transform="translate(-138.554 -141.344)" fill="#263238"/>
        <path id="Path_15768" data-name="Path 15768" d="M268.23,324.632l-4.336,8-27.108-10.656,1.691-4.8L211,286.73S249.978,299.2,268.23,324.632Z" transform="translate(-118.897 -134.753)" opacity="0.2"/>
        <path id="Path_15770" data-name="Path 15770" d="M245.665,241.179s-1.63-2.168-.108-6.058,18.267-6.781,18.267-6.781,1.83,9.718,0,12.839S247.295,248.1,245.665,241.179Z" transform="translate(-100.668 -166.144)" fill="#e4897b"/>
        <path id="Path_15771" data-name="Path 15771" d="M172.754,280.137c-.876-8.088-1.445-15.653-1.814-22.2a14.515,14.515,0,0,1,10.01-3.49S182.718,272.111,172.754,280.137Z" transform="translate(-140.434 -152.116)" opacity="0.2"/>
        <path id="Path_15772" data-name="Path 15772" d="M181.741,259.444s-8.687,25.893-9.841,32.29,0,37.456,0,37.456h-7.242s-4.09-32.782-3.783-39.194,7.688-36.226,7.688-36.226Z" transform="translate(-145.853 -152.472)" fill="#e4897b"/>
        <path id="Path_15773" data-name="Path 15773" d="M175.709,241.62c-9.226,7.073-14.469,30.06-14.469,30.06l18.3,2.045,6.658-16.391Z" transform="translate(-145.649 -159.004)" fill="#263238"/>
        <path id="Path_15774" data-name="Path 15774" d="M175.709,241.62c-9.226,7.073-14.469,30.06-14.469,30.06l18.3,2.045,6.658-16.391Z" transform="translate(-145.649 -159.004)" fill="#fff" opacity="0.4"/>
        <path id="Path_15775" data-name="Path 15775" d="M170.935,300.2s-11.547,1.876-13.685,4.013a91.653,91.653,0,0,0-6.15,7.919s13.439,4.105,15.607,4.613,11.086-7.765,12.1-10.01S170.935,300.2,170.935,300.2Z" transform="translate(-151.1 -127.511)" fill="#e4897b"/>
        <path id="Path_179" data-name="Path 179" d="M29.892,23.1,23.571,8.513,17.512,20.707,4.876,22.253l8.247,9.453-1.932,13.47,11.057-5.748,9.667,5.834-9.837-7.893-8.955,4.815L15.41,31.1,8.822,23.544,18.575,22l5-9.2Z" transform="translate(50.075 88.816) rotate(-11)" fill="#fff"/>
      </g>
    </g>
  </g>
</svg>
